<svg width="24" height="24" viewBox="0 0 24 24" fill="none" xmlns="http://www.w3.org/2000/svg">
<path d="M12.9491 15.684L10.1782 12.672L10.2109 12.636C12.1091 10.308 13.4618 7.632 14.2582 4.8H17.4545V2.4H9.81818V0H7.63636V2.4H0V4.788H12.1855C11.4545 7.104 10.2982 9.3 8.72727 11.22C7.71273 9.984 6.87273 8.628 6.20727 7.2H4.02545C4.82182 9.156 5.91273 11.004 7.27636 12.672L1.72364 18.696L3.27273 20.4L8.72727 14.4L12.12 18.132L12.9491 15.684ZM19.0909 9.6H16.9091L12 24H14.1818L15.4036 20.4H20.5855L21.8182 24H24L19.0909 9.6ZM16.2327 18L18 12.804L19.7673 18H16.2327Z" fill="black"/>
</svg>
